# xmcd
#
# Track frame offsets:
#	150
#	15885
#	35147
#	51607
#	67245
#	84460
#	103922
#	121500
#	134695
#	150372
#	169620
#	186080
#	201685
#	218875
#	238325
#	255859
#
# Disc length: 3589 seconds
#
# Revision: 1
# Processed by: cddbd v1.5.1PL0 Copyright (c) Steve Scherf et al.
# Submitted via: audiograbber 1.83.01
#
DISCID=e70e0310
DTITLE=Sound Choice - Sc3068
DYEAR=1998
DGENRE=Country
TTITLE0=Morgan, Lorrie - I'm Not That Easy To Forget
TTITLE1=Chesney, Kenny - That's Why I'm Here
TTITLE2=Ketchum, Hal - I Saw The Light
TTITLE3=Womack, Lee Ann - Buckaroo
TTITLE4=Hawkins, Brad - We Lose
TTITLE5=Harling, Keith - Papa Bear
TTITLE6=Kersh, David - Wonderful Tonight
TTITLE7=Diffie, Joe - Texas Size Heartache
TTITLE8=Morgan, Lorrie - I'm Not That Easy To Forget (Vocals on right Channel O
TTITLE8=nly)
TTITLE9=Chesney, Kenny - That's Why I'm Here (Vocals on right Channel Only)
TTITLE10=Ketchum, Hal - I Saw The Light (Vocals on right Channel Only)
TTITLE11=Womack, Lee Ann - Buckaroo (Vocals on right Channel Only)
TTITLE12=Hawkins, Brad - We Lose (Vocals on right Channel Only)
TTITLE13=Harling, Keith - Papa Bear (Vocals on right Channel Only)
TTITLE14=Kersh, David - Wonderful Tonight (Vocals on right Channel Only)
TTITLE15=Diffie, Joe - Texas Size Heartache (Vocals on right Channel Only)
EXTD=
EXTT0=
EXTT1=
EXTT2=
EXTT3=
EXTT4=
EXTT5=
EXTT6=
EXTT7=
EXTT8=
EXTT9=
EXTT10=
EXTT11=
EXTT12=
EXTT13=
EXTT14=
EXTT15=
PLAYORDER=
